<svg width="97" height="30" viewBox="0 0 97 30" xmlns="http://www.w3.org/2000/svg"><title>Combined Shape</title><path d="M.69 29.29c0-.421-.118-.834.02-1.252.108-.328.264-.674.21-1.032-.016-.127-.063-.625-.202-.686-.295-.13.145-1.417.145-1.649-.005-1.201.29-2.764-.075-3.914-.32-1.01-.24-2.124-.158-3.158.055-.684.177-1.28.14-1.982-.033-.63-.068-1.243-.077-1.877C.674 12.434.465 11.118.45 9.807c-.01-1.105.24-2.169.238-3.273 0-.6.024-1.201.001-1.8C.673 4.26.68 3.435.433 3.028c-.154-.254.027-.618.029-.885.001-.35.685-.142 1.024-.142h4.338c1.044 0 2.117.053 3.141-.111.536-.084 1.11.075 1.65.055.781-.03 1.584.1 2.366.113 1.336.025 2.667.074 4.003.052.433-.009-.016.571.006.763-.21.417-.122.997-.122 1.491 0 .812-.108 1.459-.462 2.154-.064.13-1.011-.013-1.104-.012-.593.005-1.167.127-1.75.12-1.438-.017-2.88-.004-4.319-.005-.756 0-1.51.014-2.266.007-.77-.006-.614.434-.614 1.095 0 .555.019 1.104.032 1.658.013.456.2.84.26 1.278.053.381.101.887.073 1.268-.02.279-.238.82.024.998.317.218.635.03.998-.079.476-.143.993-.082 1.492-.082 1.253 0 2.488-.037 3.738-.059.433-.008.98.002 1.403.1.3.069.314-.112.356.234.02.176.098.353.12.527.068.533-.066 1.032-.118 1.555-.065.635.232 1.363.06 1.994-.077.294-.84.168-1.049.134-.622-.105-1.231-.082-1.861-.082-1.507 0-3.047-.088-4.55 0-1.18.068-.807 1.593-.805 2.425.003 1.37.113 2.736.116 4.111 0 .446-.161.985.461 1.077.51.076.907-.126 1.391-.168 1.454-.127 3.14-.085 4.57.175 1.166.212 2.44.02 3.596-.204.382-.074.916-.141 1.007.294.15.721.098 1.142-.073 1.855-.155.65-.04 1.442-.027 2.11.012.79-.911.496-1.53.508-.995.02-1.954-.269-2.958-.166-.9.093-1.733.541-2.645.564-1.48.034-2.942-.27-4.422-.404-1.77-.16-3.71.084-5.44-.272l.117.217zm24.287-9.68c.024.324.039.496.039.82 0 .593.04 1.2-.009 1.79-.042.504.04 1.073-.1 1.56-.227.786-.389 2.102-.183 2.904.107.43.026.896.118 1.348.077.37.303.767.166 1.158-.107.308-1.775.044-2.016.047-1.068.011-2.125.006-3.192.064-1.065.058-.518-1.286-.573-1.924-.016-.18.137-.392.127-.645-.022-.414-.425-1.058-.074-1.427.237-.249.135-.955.135-1.262-.002-.668-.003-1.336 0-2.005.006-1.186.169-2.328.169-3.52 0-2.112-.462-4.22-.124-6.303.125-.747.141-2-.192-2.704-.239-.504-.02-.995.081-1.5.12-.599.06-1.237.061-1.844.002-.828-.113-1.656-.172-2.48-.037-.53-.121-1.04-.116-1.576.001-.218-.099-.392-.058-.544l-.05-.417a7.004 7.004 0 0 0 2.476-.145c.594-.15 1.127-.206 1.72-.32.188-.036 1.13-.343 1.373-.57.342-.044.26.936.26 1.126 0 .962.242 1.906.252 2.892.011 1.216-.137 2.438-.137 3.662 0 1.136.216 2.29.18 3.412-.034 1.058.099 2.174-.28 3.196-.377.998.223 1.606.404 2.589l.355-.261c.17-.398.343-.507.441-.743.14-.34.472-.591.694-.883.26-.34.348-.785.561-1.168.317-.57.861-.99.995-1.609.083-.39.446-.709.76-.935.287-.209.549-.8.702-1.116.16-.33.172-.889.402-1.163.226-.268 1.192-.1 1.509-.1 1.487 0 3.031-.182 4.513-.044.211.021.887-.018 1.03.15.185.214-.47.66-.618.797-.871.818-1.44 1.838-2.226 2.71-.34.377-.717.794-.981 1.223-.119.325-.66.567-.87.898a14.183 14.183 0 0 1-2.09 2.546c-.627.596.269.765.692 1.15.714.671 1.013 1.717 1.491 2.536.212.363.534.592.747.983.293.54.725.987 1.158 1.43.358.367.792.71 1.172 1.057.312.29.54.85.735 1.243.681.708 1.118 1.705 1.624 2.534.068.11.714.866.276.853-.588-.016-1.224.048-1.826.048-1.17 0-2.34-.003-3.508 0-.261 0-.867.225-1.065-.037-.096-.128-.424-.585-.443-.706-.05-.313-.58-.97-.814-1.195-.637-.615-1.25-1.183-1.509-2.021-.119-.385-.266-.755-.38-1.14-.12-.406-.464-.394-.642-.688a4.94 4.94 0 0 1-.398-.89c-.128-.387-.426-.627-.596-.989-.341-.727-.715-1.074-1.204-1.698-.14-.176-.051-.053-.268-.468-.095-.183-.535-.524-.535-.524l-.169.838zM45.815 8.746c.468 0 .76-.037 1.228-.016.594.027 1.131.377 1.711.506.387.086 1.019.057 1.362.237.16.085.271.313.405.43.236.206.495.304.774.447.402.205.701.651 1.097.907.574.37.931.956 1.307 1.49.79 1.124 1.277 2.43 1.574 3.745.297 1.315.282 2.673.192 4.007-.043.623.014 1.279-.138 1.89-.14.578-.588.882-.872 1.377-.555.968-.994 1.982-1.595 2.932-.632.995-2.403.779-3.215 1.658.268.104-.521.294-.664.384-.983.638-1.752.396-2.16.512-.315.092-.47.374-.824.397-.444.028-.915-.028-1.363-.03-.933-.004-1.606-.202-2.393-.667-.635-.374-1.58-.464-2.094-.967-.537-.526-.876-1.195-1.453-1.695-.268-.225-.22-.611-.42-.874-.311-.413-.632-.82-.89-1.266a3.595 3.595 0 0 1-.455-1.225c-.07-.424.038-1.004-.26-1.363-.52-.633-.352-1.668-.297-2.413.03-.397.04-.775.006-1.172-.043-.49.193-.804.281-1.266.15-.801-.13-1.7.409-2.408.398-.526.318-1.273.838-1.712.258-.22.613-.367.828-.627.253-.305.374-.647.69-.907.606-.496 1.258-.74 1.978-1.04.355-.146.69-.272 1.074-.332.493-.077.624-.274.982-.557.334-.264.73-.135 1.117-.194.364-.056.81-.296 1.184-.191l.056.003zm-.287 3.91c-.109.009-.633.15-.74.173-.517.113-.864.21-1.073.695-.155.357-.413.69-.628 1.013-.245.365-.16.585-.332.958-.393.843-.084 1.562-.116 2.435-.025.678-.972 1.537-.495 2.258.374.142.269 1.677.334 2.002.086.434.256.813.392 1.233.132.41.115.862.33 1.261.588 1.107 1.967 1.26 3.182 1.075.41-.064.65-.477 1.034-.599.38-.12.577-.208.728-.594.116-.294.343-.649.386-.958.12-.833.408-1.5.693-2.262.267-.697.354-1.74.374-2.485.024-.897-.139-1.764-.19-2.65-.043-.722-.087-1.157-.519-1.789-.257-.375-.231-.838-.66-1.117-.277-.181-.478-.304-.8-.393-.44-.122-.86-.256-1.32-.256-.232 0-.29.052-.509.022l-.071-.022zM57.547 1.458c.083-.105.904-.294 1.071-.353.737-.26 1.699-.285 2.485-.3.644-.012 1.565-.55 2.158-.373.085.635-.03 1.34.293 1.926.359.652.234 1.384.234 2.104 0 .739.13 1.587-.088 2.301-.218.725-.259 1.495-.26 2.241 0 .364-.06.732-.057 1.091.001.122-.1.618-.05.707.135.006.526-.326.635-.404.425-.306.853-.47 1.392-.47.452 0 1.248.166 1.606-.192.398-.4.652-.564 1.21-.679.368-.074.775-.196 1.153-.205.292-.009.39.113.637.109.604-.016 1.095.261 1.682.27.282.003.544.11.815.167.307.064.643-.078.919.141 1.629 1.271 1.658 3.323 2.162 5.172.343 1.257.464 2.448.447 3.752-.02 1.287-.357 2.532-.463 3.803-.103 1.22-.187 2.487-.085 3.709.025.302.152 3.388-.022 3.416-1.003.168-2.2.082-3.227.065-.575-.009-1.146.052-1.72.052-.127 0-.372.078-.482-.007-.122-.096.016-.343-.17-.398-.542-.972-.135-2.186-.31-3.225-.214-1.276.342-2.455.406-3.727.03-.6-.126-1.238-.16-1.842-.035-.65.093-1.25.105-1.888.018-1.046.319-2.286.11-3.32-.243-1.218-.99-1.653-2.227-1.635-.546.008-1.2-.089-1.736.018-.411.081-.543.268-.883.5-.573.387-.996.549-1.41 1.093-.377.488-.274 1.181-.273 1.744.002.68-.003 1.358-.003 2.037-.005 2.534.264 5.066.016 7.601-.054.56.038 1.186.143 1.738.043.226.27.793-.01.972-.559.351-1.508.278-2.163.153-.589-.112-1.226-.03-1.822-.032-.28-.001-.475-.136-.72-.123-.549.031-.801.433-.888-.205-.076-.538-.11-1.1-.215-1.632-.116-.585-.365-1.11-.172-1.715.166-.52.365-.875.397-1.421.061-1.034.07-2.02-.057-3.031-.143-1.145.085-2.25.074-3.394-.006-.642-.042-1.28.018-1.92.037-.386-.08-1.189.103-1.519.19-.343.09-1.17.115-1.563.038-.623.136-1.271.098-1.895-.037-.65-.25-1.257-.244-1.915.005-.617.055-1.23.067-1.844.015-.571-.205-1.071-.233-1.63-.024-.46.057-1.09-.177-1.51-.222-.397-.536-.593-.4-1.104.108-.435.06-.896.06-1.357l.116-.054zm24.291 26.78c.586.033.621.046 1.145.28.244.108 1.067.343 1.32.336.41.154 1.991 1.095 2.442.622.324-.34 1.905.195 2.407.195.301 0 .608.059.912.068.471.015.88-.225 1.314-.35.635-.182 1.793-.159 2.275-.644.538-.538 1.117-1.369 1.968-1.517.434-.077.433-.197.179-.465-.316-.33-.606-.526-.688-1.001-.093-.54-.44-.95-.764-1.366-.231-.298-.933.05-1.18.187-.255.142-.442.325-.658.47-.372.25-.864.159-1.201.505-.489.504-2.796.293-3.4-.006-.675-.337-1.308-.492-1.881-.99-.756-.655-1.388-1.364-1.674-2.331-.09-.305-.262-.912-.065-1.197.15-.22 1.282-.052 1.571-.103.616-.108 1.311-.012 1.94-.04a33.816 33.816 0 0 1 2.335-.02c1.446.042 2.797.029 4.243.216.69.089 1.32.03 2-.06.36-.048.113-1.048.113-1.319 0-.783-.134-1.506-.175-2.269-.03-.533-.33-.984-.3-1.518.027-.497-.073-1.653-.412-2.052-.457-.537-.485-1.198-.917-1.765-.332-.434-.545-.877-.987-1.196-.252-.183-.28-.418-.592-.548-.288-.121-.819-.306-1.05-.49-.216-.435-1.606-.598-2.05-.744-.927-.305-2.534-.343-2.82-.327-2.068.117-4.097 1.043-5.845 2.295-.727.518-1 1.427-1.68 1.983-.836.694-.645 2.069-1.053 3.025-.57.365-.41 2.348-.358 2.877.105 1.06.363 2.11.465 3.164.133 1.364.47 2.217 1.344 3.33.34.437.485.77.88 1.17.139.14.195.357.225.54-.014.417.395.656.611.998l.061.057zm5.74-15.52c.693-.09.852-.135 1.477.175.26.129.934.275 1.09.516.079.125-.018.332.122.411.152.086.227.24.285.392.304.799.327 1.574.405 2.42.09.988-1.662.432-2.285.37-.972-.097-1.935.068-2.9.055-.485-.006-.935.022-1.412.072-.392.042-.254-.905-.19-1.108.439-1.445 1.392-3.516 3.387-3.295l.022-.008z" fill="#FFF" fill-rule="evenodd"/></svg>